<svg viewBox="0 0 210 32" fill="none" xmlns="http://www.w3.org/2000/svg">
<path fill-rule="evenodd" clip-rule="evenodd" d="M7.52831 0.000159999C7.16195 0.000159999 6.86499 0.292639 6.86499 0.653277V30.6941H4.75442V0.653277C4.75442 0.292639 4.45763 0.000159999 4.09127 0.000159999H0.663321C0.296959 0.000159999 0 0.292639 0 0.653277V31.3472C0 31.7075 0.296959 32 0.663321 32C1.02968 32 1.3268 31.7075 1.3268 31.3472V1.30639H3.42778V31.3472C3.42778 31.7075 3.7249 32 4.09127 32H7.52831C7.89467 32 8.1918 31.7075 8.1918 31.3472V1.30639H10.723C17.7585 1.30639 22.6729 5.52365 22.6729 11.5628C22.6729 17.3761 18.0659 21.4925 11.3863 21.7473V19.785C16.5523 19.517 20.2343 16.1319 20.2343 11.5377C20.2343 6.67213 16.3233 3.2739 10.7235 3.2739C10.5473 3.2739 10.3784 3.34286 10.2539 3.46542C10.1294 3.58782 10.0597 3.75438 10.0599 3.9275L10.0633 7.33628C10.0638 7.6966 10.3606 7.98844 10.7268 7.98844C12.8281 7.98844 14.9487 9.08603 14.9487 11.5382C14.9487 13.6279 13.2125 15.0876 10.7268 15.0876C10.3604 15.0876 10.0633 15.3799 10.0633 15.7406C10.0633 16.1012 10.3604 16.3935 10.7268 16.3935C13.9419 16.3935 16.2753 14.3513 16.2753 11.5382C16.2753 8.8766 14.2985 6.96221 11.3896 6.71069L11.3876 4.5987C15.8482 4.84942 18.9073 7.6326 18.9073 11.5382C18.9073 15.6346 15.542 18.4957 10.7235 18.4957C10.357 18.4957 10.0599 18.7877 10.0599 19.1485V22.413C10.0599 22.7736 10.357 23.0658 10.7235 23.0658C18.4165 23.0658 24 18.2282 24 11.5625C24 4.75486 18.5403 0 10.7235 0L7.52831 0.000159999Z" fill="#00B6EF"/>
<path d="M38.38 23.28C37.48 23.28 36.65 23.1233 35.89 22.81C35.1367 22.4967 34.5233 22.02 34.05 21.38C33.5833 20.74 33.3333 19.9267 33.3 18.94H35.62C35.62 19.44 35.7433 19.85 35.99 20.17C36.2367 20.49 36.5667 20.73 36.98 20.89C37.4 21.0433 37.86 21.12 38.36 21.12C38.84 21.12 39.2667 21.0567 39.64 20.93C40.02 20.8033 40.3167 20.6233 40.53 20.39C40.75 20.15 40.86 19.8667 40.86 19.54C40.86 19.1067 40.7267 18.7667 40.46 18.52C40.2 18.2733 39.78 18.0467 39.2 17.84L36.64 16.82C35.64 16.4267 34.8733 15.97 34.34 15.45C33.8067 14.93 33.54 14.2133 33.54 13.3C33.54 12.2467 33.9567 11.3933 34.79 10.74C35.6233 10.0867 36.7867 9.76 38.28 9.76C39.7333 9.76 40.8567 10.1 41.65 10.78C42.4433 11.4533 42.8933 12.3933 43 13.6H40.68C40.5933 13.0867 40.36 12.6767 39.98 12.37C39.6 12.0567 39.0333 11.9 38.28 11.9C37.6133 11.9 37.0867 12.04 36.7 12.32C36.3133 12.5933 36.12 12.94 36.12 13.36C36.12 13.72 36.24 14.0067 36.48 14.22C36.7267 14.4267 37.1067 14.6267 37.62 14.82L40.46 15.92C41.42 16.2933 42.1567 16.7633 42.67 17.33C43.1833 17.8967 43.44 18.6067 43.44 19.46C43.44 20.24 43.2433 20.9167 42.85 21.49C42.4567 22.0567 41.8833 22.4967 41.13 22.81C40.3767 23.1233 39.46 23.28 38.38 23.28ZM49.7939 23.28C48.9806 23.28 48.2239 23.07 47.5239 22.65C46.8306 22.2233 46.2672 21.6267 45.8339 20.86C45.4072 20.0867 45.1939 19.18 45.1939 18.14C45.1939 17.04 45.4072 16.11 45.8339 15.35C46.2672 14.5833 46.8306 14.0033 47.5239 13.61C48.2239 13.2167 48.9806 13.02 49.7939 13.02C50.4272 13.02 50.9839 13.1233 51.4639 13.33C51.9506 13.53 52.3639 13.8033 52.7039 14.15C53.0439 14.49 53.3106 14.87 53.5039 15.29C53.6972 15.71 53.8206 16.1333 53.8739 16.56L51.4939 16.62C51.3872 16.1933 51.1872 15.84 50.8939 15.56C50.6072 15.28 50.2339 15.14 49.7739 15.14C49.3939 15.14 49.0372 15.2467 48.7039 15.46C48.3706 15.6667 48.0972 15.99 47.8839 16.43C47.6772 16.87 47.5739 17.44 47.5739 18.14C47.5739 18.8067 47.6706 19.3633 47.8639 19.81C48.0639 20.25 48.3306 20.5833 48.6639 20.81C48.9972 21.03 49.3672 21.14 49.7739 21.14C50.3739 21.14 50.8106 20.9967 51.0839 20.71C51.3572 20.4167 51.4939 20.0267 51.4939 19.54H53.8739C53.8739 20.2267 53.7172 20.8533 53.4039 21.42C53.0906 21.9867 52.6306 22.44 52.0239 22.78C51.4172 23.1133 50.6739 23.28 49.7939 23.28ZM62.8598 23V17.32C62.8598 16.6 62.6865 16.0567 62.3398 15.69C61.9932 15.3233 61.5398 15.14 60.9798 15.14C60.5065 15.14 60.0865 15.27 59.7198 15.53C59.3598 15.79 59.0765 16.1833 58.8698 16.71C58.6632 17.23 58.5598 17.88 58.5598 18.66H57.7798C57.7798 17.4 57.9365 16.3533 58.2498 15.52C58.5632 14.68 59.0065 14.0533 59.5798 13.64C60.1532 13.2267 60.8265 13.02 61.5998 13.02C62.3998 13.02 63.0665 13.2 63.5998 13.56C64.1398 13.9133 64.5432 14.4133 64.8098 15.06C65.0832 15.7067 65.2198 16.46 65.2198 17.32V23H62.8598ZM56.1998 23V9.28H58.5598V23H56.1998ZM71.9808 23.28C71.0941 23.28 70.2908 23.09 69.5708 22.71C68.8574 22.33 68.2908 21.7633 67.8708 21.01C67.4508 20.25 67.2408 19.3 67.2408 18.16C67.2408 17 67.4508 16.04 67.8708 15.28C68.2908 14.52 68.8574 13.9533 69.5708 13.58C70.2908 13.2067 71.0941 13.02 71.9808 13.02C72.8541 13.02 73.6441 13.2067 74.3508 13.58C75.0641 13.9533 75.6308 14.52 76.0508 15.28C76.4708 16.04 76.6808 17 76.6808 18.16C76.6808 19.3 76.4708 20.25 76.0508 21.01C75.6308 21.7633 75.0641 22.33 74.3508 22.71C73.6441 23.09 72.8541 23.28 71.9808 23.28ZM71.9008 21.22C72.3674 21.22 72.7808 21.1067 73.1408 20.88C73.5074 20.6467 73.7941 20.3033 74.0008 19.85C74.2141 19.3967 74.3208 18.8333 74.3208 18.16C74.3208 17.1333 74.1174 16.36 73.7108 15.84C73.3108 15.32 72.7608 15.06 72.0608 15.06C71.5874 15.06 71.1674 15.1767 70.8008 15.41C70.4341 15.6367 70.1441 15.98 69.9308 16.44C69.7241 16.9 69.6208 17.4733 69.6208 18.16C69.6208 19.1733 69.8241 19.9367 70.2308 20.45C70.6441 20.9633 71.2008 21.22 71.9008 21.22ZM82.8089 23.28C81.9222 23.28 81.1189 23.09 80.3989 22.71C79.6856 22.33 79.1189 21.7633 78.6989 21.01C78.2789 20.25 78.0689 19.3 78.0689 18.16C78.0689 17 78.2789 16.04 78.6989 15.28C79.1189 14.52 79.6856 13.9533 80.3989 13.58C81.1189 13.2067 81.9222 13.02 82.8089 13.02C83.6822 13.02 84.4722 13.2067 85.1789 13.58C85.8922 13.9533 86.4589 14.52 86.8789 15.28C87.2989 16.04 87.5089 17 87.5089 18.16C87.5089 19.3 87.2989 20.25 86.8789 21.01C86.4589 21.7633 85.8922 22.33 85.1789 22.71C84.4722 23.09 83.6822 23.28 82.8089 23.28ZM82.7289 21.22C83.1956 21.22 83.6089 21.1067 83.9689 20.88C84.3356 20.6467 84.6222 20.3033 84.8289 19.85C85.0422 19.3967 85.1489 18.8333 85.1489 18.16C85.1489 17.1333 84.9456 16.36 84.5389 15.84C84.1389 15.32 83.5889 15.06 82.8889 15.06C82.4156 15.06 81.9956 15.1767 81.6289 15.41C81.2622 15.6367 80.9722 15.98 80.7589 16.44C80.5522 16.9 80.4489 17.4733 80.4489 18.16C80.4489 19.1733 80.6522 19.9367 81.0589 20.45C81.4722 20.9633 82.0289 21.22 82.7289 21.22ZM89.817 23V9.28H92.177V23H89.817ZM99.2308 23.28C98.3441 23.28 97.5408 23.09 96.8208 22.71C96.1074 22.33 95.5408 21.7633 95.1208 21.01C94.7008 20.25 94.4908 19.3 94.4908 18.16C94.4908 17 94.7008 16.04 95.1208 15.28C95.5408 14.52 96.1074 13.9533 96.8208 13.58C97.5408 13.2067 98.3441 13.02 99.2308 13.02C100.104 13.02 100.894 13.2067 101.601 13.58C102.314 13.9533 102.881 14.52 103.301 15.28C103.721 16.04 103.931 17 103.931 18.16C103.931 19.3 103.721 20.25 103.301 21.01C102.881 21.7633 102.314 22.33 101.601 22.71C100.894 23.09 100.104 23.28 99.2308 23.28ZM99.1508 21.22C99.6174 21.22 100.031 21.1067 100.391 20.88C100.757 20.6467 101.044 20.3033 101.251 19.85C101.464 19.3967 101.571 18.8333 101.571 18.16C101.571 17.1333 101.367 16.36 100.961 15.84C100.561 15.32 100.011 15.06 99.3108 15.06C98.8374 15.06 98.4174 15.1767 98.0508 15.41C97.6841 15.6367 97.3941 15.98 97.1808 16.44C96.9741 16.9 96.8708 17.4733 96.8708 18.16C96.8708 19.1733 97.0741 19.9367 97.4808 20.45C97.8941 20.9633 98.4508 21.22 99.1508 21.22ZM109.979 28.02C108.866 28.02 107.912 27.8667 107.119 27.56C106.332 27.2533 105.729 26.85 105.309 26.35C104.889 25.8567 104.679 25.32 104.679 24.74C104.679 24.0533 104.929 23.52 105.429 23.14C105.929 22.7667 106.559 22.58 107.319 22.58L109.039 23.22C108.386 23.22 107.882 23.3433 107.529 23.59C107.176 23.8367 106.999 24.18 106.999 24.62C106.999 25.08 107.262 25.4467 107.789 25.72C108.322 26 109.052 26.14 109.979 26.14C110.652 26.14 111.236 26.04 111.729 25.84C112.222 25.64 112.602 25.38 112.869 25.06C113.142 24.74 113.279 24.4 113.279 24.04C113.279 23.8 113.199 23.6033 113.039 23.45C112.879 23.2967 112.632 23.22 112.299 23.22H109.039C108.386 23.22 107.789 23.1167 107.249 22.91C106.716 22.6967 106.289 22.4133 105.969 22.06C105.656 21.7 105.499 21.3 105.499 20.86C105.499 20.4533 105.612 20.1033 105.839 19.81C106.066 19.51 106.372 19.28 106.759 19.12C107.152 18.96 107.592 18.88 108.079 18.88L108.679 19.66C108.486 19.66 108.299 19.7 108.119 19.78C107.946 19.8533 107.802 19.9633 107.689 20.11C107.576 20.2567 107.519 20.44 107.519 20.66C107.519 20.9267 107.632 21.1433 107.859 21.31C108.086 21.4767 108.479 21.56 109.039 21.56H112.299C113.332 21.56 114.142 21.75 114.729 22.13C115.322 22.51 115.619 23.0933 115.619 23.88C115.619 24.58 115.389 25.2433 114.929 25.87C114.469 26.5033 113.816 27.02 112.969 27.42C112.129 27.82 111.132 28.02 109.979 28.02ZM110.099 20C109.332 20 108.629 19.8567 107.989 19.57C107.356 19.2767 106.849 18.87 106.469 18.35C106.089 17.83 105.899 17.22 105.899 16.52C105.899 15.8067 106.089 15.1867 106.469 14.66C106.849 14.1333 107.356 13.73 107.989 13.45C108.629 13.1633 109.332 13.02 110.099 13.02C110.846 13.02 111.536 13.1633 112.169 13.45C112.802 13.73 113.312 14.1333 113.699 14.66C114.086 15.1867 114.279 15.8067 114.279 16.52C114.279 17.22 114.086 17.83 113.699 18.35C113.312 18.87 112.802 19.2767 112.169 19.57C111.536 19.8567 110.846 20 110.099 20ZM110.119 18.36C110.732 18.36 111.192 18.1833 111.499 17.83C111.806 17.4767 111.959 17.04 111.959 16.52C111.959 15.96 111.802 15.51 111.489 15.17C111.182 14.83 110.719 14.66 110.099 14.66C109.499 14.66 109.039 14.83 108.719 15.17C108.399 15.51 108.239 15.96 108.239 16.52C108.239 17.04 108.399 17.4767 108.719 17.83C109.046 18.1833 109.512 18.36 110.119 18.36ZM113.539 14.58L112.459 13.96C112.459 13.38 112.592 12.8733 112.859 12.44C113.132 12 113.492 11.66 113.939 11.42C114.392 11.18 114.892 11.06 115.439 11.06L115.319 13.32C114.739 13.32 114.296 13.4233 113.989 13.63C113.689 13.83 113.539 14.1467 113.539 14.58ZM116.056 13.3H118.736L121.316 20.94H120.896L123.116 13.3H125.516L121.796 24.76C121.416 25.9067 120.946 26.7367 120.386 27.25C119.832 27.7633 119.156 28.02 118.356 28.02C117.896 28.02 117.446 27.9667 117.006 27.86C116.572 27.76 116.129 27.6 115.676 27.38V25.3C116.042 25.5267 116.396 25.6933 116.736 25.8C117.082 25.9067 117.429 25.96 117.776 25.96C118.089 25.96 118.362 25.8733 118.596 25.7C118.836 25.5333 119.042 25.2967 119.216 24.99C119.389 24.69 119.536 24.34 119.656 23.94L119.956 23L116.056 13.3ZM134.033 10.02V20.94H139.373V23H131.673V10.02H134.033ZM144.675 23.28C143.849 23.28 143.092 23.0667 142.405 22.64C141.719 22.2133 141.169 21.6167 140.755 20.85C140.342 20.0767 140.135 19.1733 140.135 18.14C140.135 17.0733 140.339 16.1567 140.745 15.39C141.159 14.6233 141.709 14.0367 142.395 13.63C143.082 13.2233 143.842 13.02 144.675 13.02C145.449 13.02 146.115 13.1767 146.675 13.49C147.242 13.7967 147.695 14.2167 148.035 14.75C148.382 15.2767 148.615 15.8733 148.735 16.54C148.855 17.2067 148.862 17.8933 148.755 18.6H142.015V17.32H147.085L146.625 17.62C146.645 17.3067 146.629 16.99 146.575 16.67C146.529 16.35 146.435 16.0567 146.295 15.79C146.155 15.5233 145.955 15.31 145.695 15.15C145.442 14.9833 145.115 14.9 144.715 14.9C144.235 14.9 143.829 15.02 143.495 15.26C143.162 15.5 142.909 15.8267 142.735 16.24C142.562 16.6533 142.475 17.12 142.475 17.64V18.58C142.475 19.1267 142.555 19.61 142.715 20.03C142.882 20.45 143.125 20.78 143.445 21.02C143.772 21.26 144.182 21.38 144.675 21.38C145.135 21.38 145.522 21.2733 145.835 21.06C146.149 20.8467 146.349 20.5267 146.435 20.1H148.815C148.715 20.7267 148.479 21.28 148.105 21.76C147.739 22.2333 147.262 22.6067 146.675 22.88C146.089 23.1467 145.422 23.28 144.675 23.28ZM157.341 23L157.041 20.64V16.74C157.041 16.06 156.901 15.5567 156.621 15.23C156.347 14.9033 155.881 14.74 155.221 14.74C154.841 14.74 154.511 14.7967 154.231 14.91C153.951 15.0233 153.734 15.1867 153.581 15.4C153.434 15.6067 153.361 15.86 153.361 16.16H150.781C150.781 15.4267 150.957 14.83 151.311 14.37C151.664 13.9033 152.171 13.5633 152.831 13.35C153.497 13.13 154.294 13.02 155.221 13.02C156.061 13.02 156.794 13.1567 157.421 13.43C158.047 13.6967 158.534 14.11 158.881 14.67C159.227 15.23 159.401 15.9467 159.401 16.82V23H157.341ZM154.161 23.28C153.327 23.28 152.631 23.1367 152.071 22.85C151.517 22.5567 151.101 22.1733 150.821 21.7C150.541 21.2267 150.401 20.7133 150.401 20.16C150.401 19.5467 150.561 19.0333 150.881 18.62C151.207 18.2 151.667 17.8867 152.261 17.68C152.854 17.4667 153.554 17.36 154.361 17.36C154.887 17.36 155.384 17.4 155.851 17.48C156.324 17.56 156.794 17.6667 157.261 17.8V19.18C156.894 19.06 156.494 18.9667 156.061 18.9C155.627 18.8333 155.221 18.8 154.841 18.8C154.281 18.8 153.821 18.9033 153.461 19.11C153.101 19.3167 152.921 19.6667 152.921 20.16C152.921 20.52 153.067 20.83 153.361 21.09C153.654 21.35 154.121 21.48 154.761 21.48C155.247 21.48 155.661 21.3733 156.001 21.16C156.341 20.9467 156.597 20.68 156.771 20.36C156.951 20.04 157.041 19.72 157.041 19.4H157.601C157.601 20.1 157.471 20.7467 157.211 21.34C156.951 21.9267 156.564 22.3967 156.051 22.75C155.544 23.1033 154.914 23.28 154.161 23.28ZM162.36 23V13.26H164.72V23H162.36ZM164.14 18.74C164.14 17.4667 164.283 16.4133 164.57 15.58C164.857 14.7467 165.24 14.13 165.72 13.73C166.207 13.3233 166.747 13.12 167.34 13.12C167.5 13.12 167.65 13.13 167.79 13.15C167.937 13.17 168.08 13.2 168.22 13.24L168.18 15.6C168.007 15.56 167.82 15.5267 167.62 15.5C167.42 15.4733 167.24 15.46 167.08 15.46C166.56 15.46 166.123 15.5867 165.77 15.84C165.423 16.0867 165.16 16.4533 164.98 16.94C164.807 17.4267 164.72 18.0267 164.72 18.74H164.14ZM176.372 23V17.32C176.372 16.6 176.198 16.0567 175.852 15.69C175.505 15.3233 175.052 15.14 174.492 15.14C174.018 15.14 173.598 15.27 173.232 15.53C172.872 15.79 172.588 16.1833 172.382 16.71C172.175 17.23 172.072 17.88 172.072 18.66H171.292C171.292 17.4 171.448 16.3533 171.762 15.52C172.075 14.68 172.518 14.0533 173.092 13.64C173.665 13.2267 174.338 13.02 175.112 13.02C175.912 13.02 176.578 13.2 177.112 13.56C177.652 13.9133 178.055 14.4133 178.322 15.06C178.595 15.7067 178.732 16.46 178.732 17.32V23H176.372ZM169.712 23V13.3H171.772L172.072 15.22V23H169.712ZM183.053 11.52C182.593 11.52 182.233 11.4 181.973 11.16C181.719 10.9133 181.593 10.5733 181.593 10.14C181.593 9.72 181.719 9.38667 181.973 9.14C182.233 8.88667 182.593 8.76 183.053 8.76C183.506 8.76 183.863 8.88667 184.123 9.14C184.383 9.38667 184.513 9.72 184.513 10.14C184.513 10.5733 184.383 10.9133 184.123 11.16C183.863 11.4 183.506 11.52 183.053 11.52ZM181.873 23V13.26H184.233V23H181.873ZM194.395 23V17.32C194.395 16.6 194.222 16.0567 193.875 15.69C193.528 15.3233 193.075 15.14 192.515 15.14C192.042 15.14 191.622 15.27 191.255 15.53C190.895 15.79 190.612 16.1833 190.405 16.71C190.198 17.23 190.095 17.88 190.095 18.66H189.315C189.315 17.4 189.472 16.3533 189.785 15.52C190.098 14.68 190.542 14.0533 191.115 13.64C191.688 13.2267 192.362 13.02 193.135 13.02C193.935 13.02 194.602 13.2 195.135 13.56C195.675 13.9133 196.078 14.4133 196.345 15.06C196.618 15.7067 196.755 16.46 196.755 17.32V23H194.395ZM187.735 23V13.3H189.795L190.095 15.22V23H187.735ZM203.436 28.02C202.323 28.02 201.369 27.8667 200.576 27.56C199.789 27.2533 199.186 26.85 198.766 26.35C198.346 25.8567 198.136 25.32 198.136 24.74C198.136 24.0533 198.386 23.52 198.886 23.14C199.386 22.7667 200.016 22.58 200.776 22.58L202.496 23.22C201.843 23.22 201.339 23.3433 200.986 23.59C200.633 23.8367 200.456 24.18 200.456 24.62C200.456 25.08 200.719 25.4467 201.246 25.72C201.779 26 202.509 26.14 203.436 26.14C204.109 26.14 204.693 26.04 205.186 25.84C205.679 25.64 206.059 25.38 206.326 25.06C206.599 24.74 206.736 24.4 206.736 24.04C206.736 23.8 206.656 23.6033 206.496 23.45C206.336 23.2967 206.089 23.22 205.756 23.22H202.496C201.843 23.22 201.246 23.1167 200.706 22.91C200.173 22.6967 199.746 22.4133 199.426 22.06C199.113 21.7 198.956 21.3 198.956 20.86C198.956 20.4533 199.069 20.1033 199.296 19.81C199.523 19.51 199.829 19.28 200.216 19.12C200.609 18.96 201.049 18.88 201.536 18.88L202.136 19.66C201.943 19.66 201.756 19.7 201.576 19.78C201.403 19.8533 201.259 19.9633 201.146 20.11C201.033 20.2567 200.976 20.44 200.976 20.66C200.976 20.9267 201.089 21.1433 201.316 21.31C201.543 21.4767 201.936 21.56 202.496 21.56H205.756C206.789 21.56 207.599 21.75 208.186 22.13C208.779 22.51 209.076 23.0933 209.076 23.88C209.076 24.58 208.846 25.2433 208.386 25.87C207.926 26.5033 207.273 27.02 206.426 27.42C205.586 27.82 204.589 28.02 203.436 28.02ZM203.556 20C202.789 20 202.086 19.8567 201.446 19.57C200.813 19.2767 200.306 18.87 199.926 18.35C199.546 17.83 199.356 17.22 199.356 16.52C199.356 15.8067 199.546 15.1867 199.926 14.66C200.306 14.1333 200.813 13.73 201.446 13.45C202.086 13.1633 202.789 13.02 203.556 13.02C204.303 13.02 204.993 13.1633 205.626 13.45C206.259 13.73 206.769 14.1333 207.156 14.66C207.543 15.1867 207.736 15.8067 207.736 16.52C207.736 17.22 207.543 17.83 207.156 18.35C206.769 18.87 206.259 19.2767 205.626 19.57C204.993 19.8567 204.303 20 203.556 20ZM203.576 18.36C204.189 18.36 204.649 18.1833 204.956 17.83C205.263 17.4767 205.416 17.04 205.416 16.52C205.416 15.96 205.259 15.51 204.946 15.17C204.639 14.83 204.176 14.66 203.556 14.66C202.956 14.66 202.496 14.83 202.176 15.17C201.856 15.51 201.696 15.96 201.696 16.52C201.696 17.04 201.856 17.4767 202.176 17.83C202.503 18.1833 202.969 18.36 203.576 18.36ZM206.996 14.58L205.916 13.96C205.916 13.38 206.049 12.8733 206.316 12.44C206.589 12 206.949 11.66 207.396 11.42C207.849 11.18 208.349 11.06 208.896 11.06L208.776 13.32C208.196 13.32 207.753 13.4233 207.446 13.63C207.146 13.83 206.996 14.1467 206.996 14.58Z" fill="#333333"/>
</svg>
